<svg width="195" height="53" viewBox="0 0 195 53" fill="none" xmlns="http://www.w3.org/2000/svg">
<g clip-path="url(#clip0_4007_564)">
<path d="M18.8534 19.1873L8.36425 46.607L0.388916 7.6864L28.0218 6.38678L11.6068 20.1311L18.8534 19.1873Z" fill="#4FE0B6"/>
<path d="M25.2311 24.2342L8.36426 46.614V9.52058L34.6111 8.80115L17.2364 23.9588L25.2311 24.2342Z" fill="#1D70B7"/>
<path d="M24.7956 9.07111L8.36426 9.52133V37.8539L18.7227 20.9657L10.7287 20.6904L24.7956 9.07111Z" fill="#44B9BE"/>
</g>
<path d="M44.8295 21.784H38.9575V24.888H44.5255V26.824H38.9575V31H36.7495V19.8H44.8295V21.784ZM50.4828 22.936C50.8668 22.936 51.2348 23 51.5868 23.128C51.9494 23.2453 52.2534 23.4213 52.4988 23.656L51.5708 25.304C51.1654 25.0267 50.7388 24.888 50.2908 24.888C49.7041 24.888 49.2348 25.0853 48.8828 25.48C48.5414 25.8747 48.3708 26.4293 48.3708 27.144V31H46.2428V23.096H48.0828L48.2588 24.088C48.8348 23.32 49.5761 22.936 50.4828 22.936ZM56.954 22.936C58.2447 22.936 59.258 23.2987 59.994 24.024C60.73 24.7387 61.098 25.72 61.098 26.968C61.098 27.2133 61.082 27.4747 61.05 27.752H54.954C55.0287 28.2533 55.2687 28.6533 55.674 28.952C56.09 29.2507 56.6127 29.4 57.242 29.4C57.6687 29.4 58.0793 29.336 58.474 29.208C58.8687 29.0693 59.194 28.8827 59.45 28.648L60.634 29.864C60.218 30.2907 59.706 30.6213 59.098 30.856C58.49 31.0907 57.8447 31.208 57.162 31.208C56.2767 31.208 55.5033 31.0373 54.842 30.696C54.1913 30.3547 53.6847 29.8747 53.322 29.256C52.97 28.6267 52.794 27.896 52.794 27.064C52.794 26.2533 52.9647 25.5387 53.306 24.92C53.658 24.2907 54.1487 23.8053 54.778 23.464C55.4073 23.112 56.1327 22.936 56.954 22.936ZM57.018 24.68C56.4527 24.68 55.9887 24.8293 55.626 25.128C55.274 25.416 55.0607 25.8213 54.986 26.344H59.05C59.0073 25.832 58.8047 25.4267 58.442 25.128C58.0793 24.8293 57.6047 24.68 57.018 24.68ZM70.6821 23.096V34.536H68.5541V30.184C68.2341 30.504 67.8501 30.7493 67.4021 30.92C66.9648 31.0907 66.4848 31.176 65.9621 31.176C65.2155 31.176 64.5488 31.0053 63.9621 30.664C63.3861 30.312 62.9328 29.8213 62.6021 29.192C62.2821 28.5627 62.1221 27.848 62.1221 27.048C62.1221 26.248 62.2821 25.5333 62.6021 24.904C62.9328 24.2747 63.3861 23.7893 63.9621 23.448C64.5488 23.096 65.2155 22.92 65.9621 22.92C66.5168 22.92 67.0288 23.016 67.4981 23.208C67.9781 23.4 68.3781 23.6773 68.6981 24.04L68.8421 23.096H70.6821ZM66.3941 29.32C67.0341 29.32 67.5568 29.1067 67.9621 28.68C68.3675 28.2533 68.5701 27.7093 68.5701 27.048C68.5701 26.3867 68.3675 25.8427 67.9621 25.416C67.5568 24.9893 67.0341 24.776 66.3941 24.776C65.7648 24.776 65.2475 24.9893 64.8421 25.416C64.4368 25.8427 64.2341 26.3867 64.2341 27.048C64.2341 27.7093 64.4368 28.2533 64.8421 28.68C65.2475 29.1067 65.7648 29.32 66.3941 29.32ZM80.4391 23.096V31H78.5991L78.4551 30.088C78.1458 30.4293 77.7671 30.696 77.3191 30.888C76.8818 31.0693 76.4018 31.16 75.8791 31.16C74.8871 31.16 74.0925 30.8347 73.4951 30.184C72.9085 29.5227 72.6151 28.632 72.6151 27.512V23.096H74.7431V27.384C74.7431 27.9813 74.8925 28.4507 75.1911 28.792C75.5005 29.1333 75.9111 29.304 76.4231 29.304C76.9885 29.304 77.4418 29.112 77.7831 28.728C78.1351 28.344 78.3111 27.848 78.3111 27.24V23.096H80.4391ZM86.1727 22.936C87.4634 22.936 88.4768 23.2987 89.2128 24.024C89.9488 24.7387 90.3168 25.72 90.3168 26.968C90.3168 27.2133 90.3008 27.4747 90.2688 27.752H84.1728C84.2474 28.2533 84.4874 28.6533 84.8928 28.952C85.3088 29.2507 85.8314 29.4 86.4608 29.4C86.8874 29.4 87.2981 29.336 87.6928 29.208C88.0874 29.0693 88.4128 28.8827 88.6688 28.648L89.8528 29.864C89.4368 30.2907 88.9248 30.6213 88.3168 30.856C87.7088 31.0907 87.0634 31.208 86.3808 31.208C85.4954 31.208 84.7221 31.0373 84.0608 30.696C83.4101 30.3547 82.9034 29.8747 82.5408 29.256C82.1888 28.6267 82.0128 27.896 82.0128 27.064C82.0128 26.2533 82.1834 25.5387 82.5247 24.92C82.8768 24.2907 83.3674 23.8053 83.9968 23.464C84.6261 23.112 85.3514 22.936 86.1727 22.936ZM86.2368 24.68C85.6714 24.68 85.2074 24.8293 84.8448 25.128C84.4928 25.416 84.2794 25.8213 84.2048 26.344H88.2688C88.2261 25.832 88.0234 25.4267 87.6608 25.128C87.2981 24.8293 86.8234 24.68 86.2368 24.68ZM96.3969 22.936C97.4102 22.936 98.2155 23.2667 98.8129 23.928C99.4102 24.5787 99.7089 25.464 99.7089 26.584V31H97.5809V26.712C97.5809 26.104 97.4262 25.6347 97.1169 25.304C96.8182 24.9627 96.4022 24.792 95.8689 24.792C95.2929 24.792 94.8289 24.984 94.4769 25.368C94.1249 25.752 93.9489 26.248 93.9489 26.856V31H91.8209V23.096H93.6609L93.8049 24.008C94.1142 23.6667 94.4929 23.4053 94.9409 23.224C95.3889 23.032 95.8742 22.936 96.3969 22.936ZM105.457 31.176C104.593 31.176 103.836 31.0107 103.185 30.68C102.545 30.3387 102.049 29.8587 101.697 29.24C101.345 28.6107 101.169 27.88 101.169 27.048C101.169 26.2373 101.345 25.5227 101.697 24.904C102.06 24.2747 102.561 23.7893 103.201 23.448C103.841 23.096 104.582 22.92 105.425 22.92C106.598 22.92 107.612 23.3307 108.465 24.152L107.233 25.48C107.009 25.256 106.748 25.0853 106.449 24.968C106.15 24.84 105.836 24.776 105.505 24.776C104.844 24.776 104.305 24.9893 103.889 25.416C103.484 25.832 103.281 26.376 103.281 27.048C103.281 27.72 103.484 28.2693 103.889 28.696C104.305 29.112 104.844 29.32 105.505 29.32C106.23 29.32 106.838 29.064 107.329 28.552L108.577 29.896C107.692 30.7493 106.652 31.176 105.457 31.176ZM115.421 23.096H117.725L112.781 34.536H110.493L112.061 30.904L108.957 23.096H111.245L112.413 26.184L113.245 28.6L114.157 26.184L115.421 23.096ZM122.656 19.8H124.864V31H122.656V19.8ZM131.694 22.936C132.707 22.936 133.512 23.2667 134.11 23.928C134.707 24.5787 135.006 25.464 135.006 26.584V31H132.878V26.712C132.878 26.104 132.723 25.6347 132.414 25.304C132.115 24.9627 131.699 24.792 131.166 24.792C130.59 24.792 130.126 24.984 129.774 25.368C129.422 25.752 129.246 26.248 129.246 26.856V31H127.118V23.096H128.958L129.102 24.008C129.411 23.6667 129.79 23.4053 130.238 23.224C130.686 23.032 131.171 22.936 131.694 22.936ZM142.409 23.096H144.681L141.337 31H139.113L135.753 23.096H138.073L139.097 25.656L140.249 28.776L141.385 25.656L142.409 23.096ZM149.235 22.936C150.526 22.936 151.539 23.2987 152.275 24.024C153.011 24.7387 153.379 25.72 153.379 26.968C153.379 27.2133 153.363 27.4747 153.331 27.752H147.235C147.31 28.2533 147.55 28.6533 147.955 28.952C148.371 29.2507 148.894 29.4 149.523 29.4C149.95 29.4 150.361 29.336 150.755 29.208C151.15 29.0693 151.475 28.8827 151.731 28.648L152.915 29.864C152.499 30.2907 151.987 30.6213 151.379 30.856C150.771 31.0907 150.126 31.208 149.443 31.208C148.558 31.208 147.785 31.0373 147.123 30.696C146.473 30.3547 145.966 29.8747 145.603 29.256C145.251 28.6267 145.075 27.896 145.075 27.064C145.075 26.2533 145.246 25.5387 145.587 24.92C145.939 24.2907 146.43 23.8053 147.059 23.464C147.689 23.112 148.414 22.936 149.235 22.936ZM149.299 24.68C148.734 24.68 148.27 24.8293 147.907 25.128C147.555 25.416 147.342 25.8213 147.267 26.344H151.331C151.289 25.832 151.086 25.4267 150.723 25.128C150.361 24.8293 149.886 24.68 149.299 24.68ZM157.907 31.208C156.553 31.208 155.353 30.8347 154.307 30.088L155.187 28.584C155.55 28.84 155.982 29.0427 156.483 29.192C156.985 29.3307 157.491 29.4 158.003 29.4C158.43 29.4 158.761 29.336 158.995 29.208C159.23 29.08 159.347 28.8987 159.347 28.664C159.347 28.4293 159.23 28.2533 158.995 28.136C158.761 28.008 158.371 27.9173 157.827 27.864C156.803 27.7787 156.003 27.5227 155.427 27.096C154.862 26.6587 154.579 26.088 154.579 25.384C154.579 24.8933 154.723 24.4613 155.011 24.088C155.299 23.704 155.705 23.4107 156.227 23.208C156.761 22.9947 157.374 22.888 158.067 22.888C158.675 22.888 159.246 22.968 159.779 23.128C160.323 23.2773 160.809 23.496 161.235 23.784L160.371 25.256C159.731 24.8507 158.995 24.648 158.163 24.648C157.161 24.648 156.659 24.8933 156.659 25.384C156.659 25.5973 156.766 25.768 156.979 25.896C157.193 26.0133 157.545 26.0933 158.035 26.136C159.187 26.2533 160.041 26.5147 160.595 26.92C161.161 27.3253 161.443 27.9067 161.443 28.664C161.443 29.432 161.123 30.0507 160.483 30.52C159.854 30.9787 158.995 31.208 157.907 31.208ZM168.37 30.712C168.05 30.8613 167.736 30.968 167.426 31.032C167.128 31.096 166.797 31.128 166.434 31.128C165.592 31.128 164.93 30.888 164.45 30.408C163.981 29.928 163.746 29.192 163.746 28.2V24.84H162.322V23.096H163.746V21.08L165.858 20.856V23.096H167.986V24.84H165.858V28.2C165.858 28.552 165.944 28.824 166.114 29.016C166.296 29.1973 166.546 29.288 166.866 29.288C167.176 29.288 167.49 29.2133 167.81 29.064L168.37 30.712Z" fill="white"/>
<defs>
<clipPath id="clip0_4007_564">
<rect width="35" height="41" fill="white" transform="translate(0 6)"/>
</clipPath>
</defs>
</svg>
