<svg width="697" height="401" viewBox="0 0 697 401" fill="none" xmlns="http://www.w3.org/2000/svg">
<path d="M-12.0811 237.962C-23.0514 215.929 -36.598 217.03 -42 220.335V399.898H694.753V85.9324C679.794 89.9717 656.972 103.384 618.709 85.9324C580.064 68.3065 577.571 93.6444 568.845 128.897C560.924 160.894 541.419 133.304 502.774 169.658C471.704 198.885 457.397 79.323 450.416 48.4763C445.429 26.4434 426.73 20.9356 421.743 48.4763C416.757 85.9324 413.516 159.082 410.524 169.658C405.849 186.183 395.989 188.18 388.084 181.776C373.125 169.658 375.618 126.917 375.618 96.9494C375.618 68.3065 356.345 68.3065 353.179 85.9324C340.713 155.337 339.466 261.026 318.274 262.197C302.317 263.078 297.081 235.757 288.355 209.32C285.081 199.403 273.395 192.575 258.436 209.32C239.736 230.251 233.503 211.523 232.257 203.809C231.01 196.095 224.911 155.451 223.53 74.9196C222.284 2.21095 192.043 5.5152 189.872 35.2591C182.392 137.713 191.207 276.518 156.213 276.518C136.267 276.518 136.267 240.081 136.267 210.419C136.267 186.182 120.061 183.979 115.074 203.809C110.088 223.638 106.348 246.775 90.1419 246.775C71.2775 246.775 65.2095 218.13 65.2095 196.097C65.2095 174.064 62.7033 147.697 52.7432 146.523C34.0439 144.32 36.5372 222.537 30.3041 246.775C25.3623 265.992 1.63176 265.503 -12.0811 237.962Z" fill="url(#paint0_linear_370_585)" fill-opacity="0.5"/>
<path d="M-42 220.335C-36.598 217.03 -23.0514 215.929 -12.0811 237.962C1.63176 265.503 25.3623 265.992 30.3041 246.775C36.5372 222.537 34.0439 144.32 52.7432 146.523C62.7033 147.697 65.2095 174.064 65.2095 196.097C65.2095 218.13 71.2774 246.775 90.1419 246.775C106.348 246.775 110.088 223.638 115.074 203.809C120.061 183.979 136.267 186.182 136.267 210.419C136.267 240.081 136.267 276.518 156.213 276.518C191.207 276.518 182.392 137.713 189.872 35.2591C192.043 5.5152 222.284 2.21095 223.53 74.9196C224.911 155.451 231.01 196.095 232.257 203.809C233.503 211.523 239.736 230.251 258.436 209.32C273.395 192.575 285.081 199.403 288.355 209.32C297.081 235.757 302.317 263.078 318.274 262.197C339.466 261.026 340.713 155.337 353.179 85.9324C356.345 68.3065 375.618 68.3065 375.618 96.9494C375.618 126.917 373.125 169.658 388.084 181.776C395.989 188.18 405.849 186.183 410.524 169.658C413.516 159.082 416.757 85.9324 421.743 48.4763C426.73 20.9356 445.429 26.4434 450.416 48.4763C457.397 79.323 471.704 198.885 502.774 169.658C541.419 133.304 560.924 160.894 568.845 128.897C577.571 93.6444 580.064 68.3065 618.709 85.9324C656.972 103.384 679.794 89.9717 694.753 85.9324" stroke="url(#paint1_linear_370_585)" stroke-opacity="0.5" stroke-width="3" stroke-linecap="round" stroke-linejoin="round"/>
<defs>
<linearGradient id="paint0_linear_370_585" x1="326.377" y1="15.4231" x2="326.377" y2="399.898" gradientUnits="userSpaceOnUse">
<stop stop-color="#1D70B7" stop-opacity="0.14"/>
<stop offset="1" stop-color="#1D70B7" stop-opacity="0"/>
</linearGradient>
<linearGradient id="paint1_linear_370_585" x1="673.561" y1="87.0303" x2="39.3104" y2="428.809" gradientUnits="userSpaceOnUse">
<stop stop-color="#1D70B7"/>
<stop offset="1" stop-color="#1D70B7" stop-opacity="0"/>
</linearGradient>
</defs>
</svg>
