<svg width="573" height="250" viewBox="0 0 573 250" fill="none" xmlns="http://www.w3.org/2000/svg">
<path d="M493.415 169.545C523.386 156.448 558.501 175.003 572.312 185.917V249.75H-4.99988V0C24.0038 7.49219 42.649 69.0946 47.3104 108.22C51.1121 140.132 51.2811 162.886 71.4801 169.545C91.7872 176.24 115.864 154.936 136.235 126.077C152.533 102.99 176.864 116.457 186.992 126.077C204.946 142.819 234.522 154.172 258.278 137.079C287.972 115.713 304.373 121.817 341.836 137.079C379.299 152.341 375.501 162.053 406.749 185.917C437.997 209.781 455.952 185.917 493.415 169.545Z" fill="url(#paint0_linear_4017_345)"/>
<path d="M69.1324 142.457C40.9718 129.369 7.97723 147.91 -5 158.817V249.5H541V34.9074C513.748 42.3941 490.597 40.4526 486.218 79.5498C482.645 111.438 482.487 134.175 463.507 140.83C444.427 147.52 433.335 108.387 414.194 79.5498C398.881 56.4798 373.091 86.5 363.574 96.1125C346.704 112.842 308.353 76.3408 291.732 47.648C268 6.67808 236.791 2.93083 213.22 47.648C189.649 92.3652 166.269 55.7034 136.908 79.5498C107.547 103.396 104.333 158.817 69.1324 142.457Z" fill="url(#paint1_linear_4017_345)" fill-opacity="0.5"/>
<path d="M-5 159C7.97723 148.079 40.9718 129.515 69.1324 142.619C104.333 159 107.547 103.509 136.908 79.6318C166.269 55.7548 189.649 92.4636 213.22 47.6892C236.791 2.91473 268 6.66678 291.732 47.6892C308.353 76.4187 346.704 112.967 363.574 96.2157C373.091 86.5909 398.881 56.5322 414.194 79.6318C433.335 108.506 444.427 147.689 463.507 140.99C482.487 134.327 482.645 111.56 486.218 79.6318C490.597 40.4846 513.748 42.4285 541 34.9323" stroke="#4FD1C5" stroke-opacity="0.5" stroke-width="3"/>
<defs>
<linearGradient id="paint0_linear_4017_345" x1="283.656" y1="0" x2="283.656" y2="249.75" gradientUnits="userSpaceOnUse">
<stop stop-color="#2D3748" stop-opacity="0.36"/>
<stop offset="1" stop-color="#2D3748" stop-opacity="0"/>
</linearGradient>
<linearGradient id="paint1_linear_4017_345" x1="268" y1="15.5" x2="268" y2="249.5" gradientUnits="userSpaceOnUse">
<stop stop-color="#4FD1C5" stop-opacity="0.54"/>
<stop offset="1" stop-color="#4FD1C5" stop-opacity="0"/>
</linearGradient>
</defs>
</svg>
