<svg width="681" height="267" viewBox="0 0 681 267" fill="none" xmlns="http://www.w3.org/2000/svg">
<mask id="mask0_4042_636" style="mask-type:alpha" maskUnits="userSpaceOnUse" x="85" y="23" width="563" height="244">
<rect x="85" y="23" width="563" height="244" fill="black"/>
</mask>
<g mask="url(#mask0_4042_636)">
<path d="M87.0107 207.017L121.059 162.943C125.05 157.777 131.311 154.884 137.832 155.192L173.416 156.878L214.084 160.596C219.337 161.077 224.567 159.462 228.635 156.105L279.951 113.754C284.997 109.59 292.617 111.313 295.38 117.243L326.204 183.39C329.215 189.851 335.437 194.222 342.537 194.862L383.813 198.581C391.179 199.245 398.311 195.79 402.354 189.597L423.728 156.864C428.957 148.856 439.124 145.67 447.988 149.264L468.818 157.708C480.257 162.345 493.124 155.617 495.841 143.577L505.775 99.5719C507.684 91.1145 514.826 84.8504 523.46 84.0594L566.917 80.0778C569.553 79.8363 572.114 79.074 574.453 77.8351L631.914 47.4" stroke="#44B9BE" stroke-opacity="0.5" stroke-linecap="round" stroke-dasharray="2 4"/>
</g>
<mask id="mask1_4042_636" style="mask-type:alpha" maskUnits="userSpaceOnUse" x="85" y="23" width="563" height="244">
<rect x="85" y="23" width="563" height="244" fill="black"/>
</mask>
<g mask="url(#mask1_4042_636)">
<mask id="mask2_4042_636" style="mask-type:alpha" maskUnits="userSpaceOnUse" x="87" y="63" width="545" height="204">
<path d="M109.013 156.185L87.0107 166.184V267H631.914V91.2293L598.24 96.1654C594.132 96.7676 590.313 98.6335 587.313 101.504L566.712 121.218C558.798 128.792 546.264 128.589 538.598 120.764L525.893 107.796C516.335 98.0391 501.392 95.9705 489.543 102.763L482.31 106.909C474.527 111.371 464.594 108.049 461.062 99.8021L449.392 72.5578C444.787 61.805 430.055 60.5254 423.664 70.323C415.349 83.0699 400.387 89.8255 385.327 87.6325L372.969 85.8331C364.576 84.6109 356.325 88.8157 352.381 96.3247L327.852 143.028C324.006 150.35 316.049 154.55 307.833 153.594L278.265 150.153C265.384 148.654 252.575 153.492 243.903 163.133L242.977 164.162C230.691 177.82 214.079 186.834 195.931 189.688L187.029 191.089C182.05 191.872 177.264 193.593 172.928 196.162C162.616 202.27 149.284 197.946 144.52 186.948L135.64 166.444C131.194 156.181 119.196 151.558 109.013 156.185Z" fill="url(#paint0_radial_4042_636)"/>
</mask>
<g mask="url(#mask2_4042_636)">
<path opacity="0.6" d="M109.013 156.185L87.0107 166.184V267H631.914V91.2293L598.24 96.1654C594.132 96.7676 590.313 98.6335 587.313 101.504L566.712 121.218C558.798 128.792 546.264 128.589 538.598 120.764L525.893 107.796C516.335 98.0391 501.392 95.9705 489.543 102.763L482.31 106.909C474.527 111.371 464.594 108.049 461.062 99.8021L449.392 72.5579C444.787 61.805 430.055 60.5254 423.664 70.323C415.349 83.0699 400.387 89.8255 385.327 87.6325L372.969 85.8331C364.576 84.6109 356.325 88.8157 352.381 96.3247L327.852 143.028C324.006 150.35 316.049 154.55 307.833 153.594L278.265 150.153C265.384 148.654 252.575 153.492 243.903 163.133L242.977 164.162C230.691 177.82 214.079 186.834 195.931 189.688L187.029 191.089C182.05 191.872 177.264 193.593 172.928 196.162C162.616 202.27 149.284 197.946 144.52 186.948L135.64 166.444C131.194 156.181 119.196 151.558 109.013 156.185Z" fill="#4FE0B6" fill-opacity="0.5"/>
</g>
<path d="M95 218.298L121.949 206.102C129.75 202.572 138.96 205.303 143.575 212.517L145.811 216.011C151.221 224.468 163.416 224.909 169.423 216.865L179.241 203.72C183.258 198.341 190.863 197.213 196.269 201.193V201.193C204.016 206.897 214.389 207.523 222.766 202.793L252.5 186L291.375 168.128C291.795 167.934 292.005 167.838 292.202 167.719C292.376 167.613 292.542 167.494 292.698 167.363C292.874 167.215 293.033 167.047 293.351 166.711L325.939 132.264C327.271 130.856 327.937 130.152 328.529 129.392C329.055 128.716 329.537 128.007 329.972 127.269C330.462 126.439 330.872 125.561 331.691 123.805L338.276 109.694C338.901 108.355 339.213 107.686 339.695 107.196C340.121 106.763 340.64 106.432 341.213 106.229C341.86 106 342.599 106 344.076 106H354.631C360.803 106 363.889 106 366.697 105.159C369.183 104.414 371.501 103.192 373.52 101.562C375.801 99.7203 377.545 97.1745 381.032 92.0828L391.299 77.0928C393.246 74.2514 394.219 72.8307 395.305 71.504C396.271 70.3251 397.303 69.2024 398.397 68.1412C399.627 66.9471 400.961 65.8581 403.629 63.6802L417.393 52.4449C418.689 51.3866 419.337 50.8575 420.065 50.6264C420.708 50.4225 421.392 50.3844 422.054 50.5158C422.803 50.6646 423.506 51.1185 424.912 52.0264L436.626 59.5919C441.579 62.7904 448.054 62.3053 452.475 58.4047V58.4047C453.156 57.8032 453.899 57.2739 454.689 56.8254L489.701 36.968C497.737 32.4102 501.755 30.1313 505.706 29.1393C514.32 26.9766 523.449 28.7412 530.636 33.9582C533.932 36.3513 536.811 39.9635 542.57 47.1879L543.692 48.5956C544.025 49.0131 544.191 49.2218 544.326 49.361C546.139 51.2312 549.227 50.8978 550.599 48.6836C550.701 48.5189 550.819 48.2795 551.055 47.8006L552.369 45.1344C558.488 32.716 575.116 30.2113 584.622 40.2763V40.2763C588.374 44.2488 593.597 46.5 599.061 46.5H615.289C615.555 46.5 615.688 46.5 615.821 46.4912C615.939 46.4834 616.056 46.4703 616.173 46.4521C616.304 46.4316 616.434 46.4024 616.694 46.3439L634.088 42.4302C634.799 42.2703 635.154 42.1904 635.511 42.175C635.828 42.1614 636.146 42.1855 636.457 42.2469C636.808 42.3161 637.147 42.4488 637.825 42.7141L647.5 46.5" stroke="url(#paint1_linear_4042_636)" stroke-width="2" stroke-linecap="round"/>
<path d="M95 218.298L121.949 206.102C129.75 202.572 138.96 205.303 143.575 212.517L145.811 216.011C151.221 224.468 163.416 224.909 169.423 216.865L179.241 203.72C183.258 198.341 190.863 197.213 196.269 201.193V201.193C204.016 206.897 214.389 207.523 222.766 202.793L252.5 186L291.375 168.128C291.795 167.934 292.005 167.838 292.202 167.719C292.376 167.613 292.542 167.494 292.698 167.363C292.874 167.215 293.033 167.047 293.351 166.711L325.939 132.264C327.271 130.856 327.937 130.152 328.529 129.392C329.055 128.716 329.537 128.007 329.972 127.269C330.462 126.439 330.872 125.561 331.691 123.805L338.276 109.694C338.901 108.355 339.213 107.686 339.695 107.196C340.121 106.763 340.64 106.432 341.213 106.229C341.86 106 342.599 106 344.076 106H354.631C360.803 106 363.889 106 366.697 105.159C369.183 104.414 371.501 103.192 373.52 101.562C375.801 99.7203 377.545 97.1745 381.032 92.0828L391.299 77.0928C393.246 74.2514 394.219 72.8307 395.305 71.504C396.271 70.3251 397.303 69.2024 398.397 68.1412C399.627 66.9471 400.961 65.8581 403.629 63.6802L417.393 52.4449C418.689 51.3866 419.337 50.8575 420.065 50.6264C420.708 50.4225 421.392 50.3844 422.054 50.5158C422.803 50.6646 423.506 51.1185 424.912 52.0264L436.626 59.5919C441.579 62.7904 448.054 62.3053 452.475 58.4047V58.4047C453.156 57.8032 453.899 57.2739 454.689 56.8254L489.701 36.968C497.737 32.4102 501.755 30.1313 505.706 29.1393C514.32 26.9766 523.449 28.7412 530.636 33.9582C533.932 36.3513 536.811 39.9635 542.57 47.1879L543.692 48.5956C544.025 49.0131 544.191 49.2218 544.326 49.361C546.139 51.2312 549.227 50.8978 550.599 48.6836C550.701 48.5189 550.819 48.2795 551.055 47.8006L552.369 45.1344C558.488 32.716 575.116 30.2113 584.622 40.2763V40.2763C588.374 44.2488 593.597 46.5 599.061 46.5H615.289C615.555 46.5 615.688 46.5 615.821 46.4912C615.939 46.4834 616.056 46.4703 616.173 46.4521C616.304 46.4316 616.434 46.4024 616.694 46.3439L634.088 42.4302C634.799 42.2703 635.154 42.1904 635.511 42.175C635.828 42.1614 636.146 42.1855 636.457 42.2469C636.808 42.3161 637.147 42.4488 637.825 42.7141L647.5 46.5" stroke="#4FE0B6" stroke-opacity="0.5" stroke-width="2" stroke-linecap="round" style="mix-blend-mode:screen"/>
</g>
<path d="M650 11H31C14.4315 11 1 24.4315 1 41V221C1 237.569 14.4315 251 31 251H650C666.569 251 680 237.569 680 221V41C680 24.4315 666.569 11 650 11Z" stroke="url(#paint2_linear_4042_636)" stroke-opacity="0.5" stroke-width="2" stroke-miterlimit="10"/>
<path d="M32.3789 36.7244H33.7127C33.7411 36.9943 33.8335 37.2244 33.9897 37.4148C34.1488 37.6023 34.3562 37.7443 34.6119 37.8409C34.8675 37.9375 35.1516 37.9858 35.4641 37.9858C35.7994 37.9858 36.0991 37.929 36.3633 37.8153C36.6303 37.7017 36.8406 37.5341 36.994 37.3125C37.1474 37.0909 37.2241 36.8182 37.2241 36.4943C37.2241 36.2045 37.1545 35.9375 37.0153 35.6932C36.8761 35.4489 36.6573 35.2528 36.359 35.1051C36.0607 34.9574 35.6715 34.8835 35.1914 34.8835H34.4116V33.8864L36.5082 31.4659V31.402H32.8093V30.2727H38.2298V31.2273L35.8945 33.9034V33.9716C36.2979 33.9972 36.663 34.081 36.9897 34.223C37.3192 34.3651 37.6005 34.5526 37.8335 34.7855C38.0664 35.0156 38.2454 35.2798 38.3704 35.5781C38.4954 35.8764 38.5579 36.196 38.5579 36.5369C38.5579 37.0398 38.4244 37.4858 38.1573 37.875C37.8903 38.2642 37.5224 38.5696 37.0536 38.7912C36.5877 39.0099 36.0536 39.1193 35.4513 39.1193C34.8917 39.1193 34.3846 39.0227 33.93 38.8295C33.4783 38.6364 33.1133 38.3608 32.8349 38.0028C32.5593 37.6449 32.4073 37.2188 32.3789 36.7244ZM43.1942 39.1449C42.521 39.142 41.9457 38.9645 41.4684 38.6122C40.9911 38.2599 40.6261 37.7472 40.3732 37.0739C40.1204 36.4006 39.994 35.5895 39.994 34.6406C39.994 33.6946 40.1204 32.8864 40.3732 32.2159C40.6289 31.5455 40.9954 31.0341 41.4727 30.6818C41.9528 30.3295 42.5266 30.1534 43.1942 30.1534C43.8619 30.1534 44.4343 30.331 44.9116 30.6861C45.3888 31.0384 45.7539 31.5497 46.0067 32.2202C46.2624 32.8878 46.3903 33.6946 46.3903 34.6406C46.3903 35.5923 46.2638 36.4048 46.011 37.0781C45.7582 37.7486 45.3931 38.2614 44.9158 38.6165C44.4386 38.9688 43.8647 39.1449 43.1942 39.1449ZM43.1942 38.0071C43.7852 38.0071 44.2468 37.7188 44.5792 37.142C44.9144 36.5653 45.082 35.7315 45.082 34.6406C45.082 33.9162 45.0053 33.304 44.8519 32.804C44.7013 32.3011 44.484 31.9205 44.1999 31.6619C43.9187 31.4006 43.5835 31.2699 43.1942 31.2699C42.6062 31.2699 42.1445 31.5597 41.8093 32.1392C41.4741 32.7187 41.305 33.5526 41.3022 34.6406C41.3022 35.3679 41.3775 35.983 41.5281 36.4858C41.6815 36.9858 41.8988 37.3651 42.18 37.6236C42.4613 37.8793 42.7994 38.0071 43.1942 38.0071ZM52.4574 37.3636V36.9034C52.4574 36.5739 52.5256 36.2727 52.6619 36C52.8011 35.7244 53.0028 35.5043 53.267 35.3395C53.5341 35.1719 53.8565 35.0881 54.2344 35.0881C54.6207 35.0881 54.9446 35.1705 55.206 35.3352C55.4673 35.5 55.6648 35.7202 55.7983 35.9957C55.9347 36.2713 56.0028 36.5739 56.0028 36.9034V37.3636C56.0028 37.6932 55.9347 37.9957 55.7983 38.2713C55.6619 38.544 55.4616 38.7642 55.1974 38.9318C54.9361 39.0966 54.6151 39.179 54.2344 39.179C53.8509 39.179 53.527 39.0966 53.2628 38.9318C52.9986 38.7642 52.7983 38.544 52.6619 38.2713C52.5256 37.9957 52.4574 37.6932 52.4574 37.3636ZM53.4503 36.9034V37.3636C53.4503 37.608 53.5085 37.8295 53.625 38.0284C53.7415 38.2273 53.9446 38.3267 54.2344 38.3267C54.5213 38.3267 54.7216 38.2273 54.8352 38.0284C54.9489 37.8295 55.0057 37.608 55.0057 37.3636V36.9034C55.0057 36.6591 54.9503 36.4375 54.8395 36.2386C54.7315 36.0398 54.5298 35.9403 54.2344 35.9403C53.9503 35.9403 53.7486 36.0398 53.6293 36.2386C53.5099 36.4375 53.4503 36.6591 53.4503 36.9034ZM48.0682 32.3693V31.9091C48.0682 31.5795 48.1364 31.277 48.2727 31.0014C48.4119 30.7259 48.6136 30.5057 48.8778 30.3409C49.1449 30.1761 49.4673 30.0938 49.8452 30.0938C50.2315 30.0938 50.5554 30.1761 50.8168 30.3409C51.0781 30.5057 51.2756 30.7259 51.4091 31.0014C51.5426 31.277 51.6094 31.5795 51.6094 31.9091V32.3693C51.6094 32.6989 51.5412 33.0014 51.4048 33.277C51.2713 33.5497 51.0724 33.7699 50.8082 33.9375C50.5469 34.1023 50.2259 34.1847 49.8452 34.1847C49.4588 34.1847 49.1335 34.1023 48.8693 33.9375C48.608 33.7699 48.4091 33.5497 48.2727 33.277C48.1364 33.0014 48.0682 32.6989 48.0682 32.3693ZM49.0653 31.9091V32.3693C49.0653 32.6136 49.1222 32.8352 49.2358 33.0341C49.3523 33.233 49.5554 33.3324 49.8452 33.3324C50.1293 33.3324 50.3281 33.233 50.4418 33.0341C50.5582 32.8352 50.6165 32.6136 50.6165 32.3693V31.9091C50.6165 31.6648 50.5611 31.4432 50.4503 31.2443C50.3395 31.0455 50.1378 30.946 49.8452 30.946C49.5611 30.946 49.3594 31.0455 49.2401 31.2443C49.1236 31.4432 49.0653 31.6648 49.0653 31.9091ZM48.473 39L54.473 30.2727H55.4915L49.4915 39H48.473Z" fill="white"/>
<path d="M39.1942 221.145C38.521 221.142 37.9457 220.964 37.4684 220.612C36.9911 220.26 36.6261 219.747 36.3732 219.074C36.1204 218.401 35.994 217.589 35.994 216.641C35.994 215.695 36.1204 214.886 36.3732 214.216C36.6289 213.545 36.9954 213.034 37.4727 212.682C37.9528 212.33 38.5266 212.153 39.1942 212.153C39.8619 212.153 40.4343 212.331 40.9116 212.686C41.3888 213.038 41.7539 213.55 42.0067 214.22C42.2624 214.888 42.3903 215.695 42.3903 216.641C42.3903 217.592 42.2638 218.405 42.011 219.078C41.7582 219.749 41.3931 220.261 40.9158 220.616C40.4386 220.969 39.8647 221.145 39.1942 221.145ZM39.1942 220.007C39.7852 220.007 40.2468 219.719 40.5792 219.142C40.9144 218.565 41.082 217.732 41.082 216.641C41.082 215.916 41.0053 215.304 40.8519 214.804C40.7013 214.301 40.484 213.92 40.1999 213.662C39.9187 213.401 39.5835 213.27 39.1942 213.27C38.6062 213.27 38.1445 213.56 37.8093 214.139C37.4741 214.719 37.305 215.553 37.3022 216.641C37.3022 217.368 37.3775 217.983 37.5281 218.486C37.6815 218.986 37.8988 219.365 38.18 219.624C38.4613 219.879 38.7994 220.007 39.1942 220.007ZM48.4574 219.364V218.903C48.4574 218.574 48.5256 218.273 48.6619 218C48.8011 217.724 49.0028 217.504 49.267 217.339C49.5341 217.172 49.8565 217.088 50.2344 217.088C50.6207 217.088 50.9446 217.17 51.206 217.335C51.4673 217.5 51.6648 217.72 51.7983 217.996C51.9347 218.271 52.0028 218.574 52.0028 218.903V219.364C52.0028 219.693 51.9347 219.996 51.7983 220.271C51.6619 220.544 51.4616 220.764 51.1974 220.932C50.9361 221.097 50.6151 221.179 50.2344 221.179C49.8509 221.179 49.527 221.097 49.2628 220.932C48.9986 220.764 48.7983 220.544 48.6619 220.271C48.5256 219.996 48.4574 219.693 48.4574 219.364ZM49.4503 218.903V219.364C49.4503 219.608 49.5085 219.83 49.625 220.028C49.7415 220.227 49.9446 220.327 50.2344 220.327C50.5213 220.327 50.7216 220.227 50.8352 220.028C50.9489 219.83 51.0057 219.608 51.0057 219.364V218.903C51.0057 218.659 50.9503 218.437 50.8395 218.239C50.7315 218.04 50.5298 217.94 50.2344 217.94C49.9503 217.94 49.7486 218.04 49.6293 218.239C49.5099 218.437 49.4503 218.659 49.4503 218.903ZM44.0682 214.369V213.909C44.0682 213.58 44.1364 213.277 44.2727 213.001C44.4119 212.726 44.6136 212.506 44.8778 212.341C45.1449 212.176 45.4673 212.094 45.8452 212.094C46.2315 212.094 46.5554 212.176 46.8168 212.341C47.0781 212.506 47.2756 212.726 47.4091 213.001C47.5426 213.277 47.6094 213.58 47.6094 213.909V214.369C47.6094 214.699 47.5412 215.001 47.4048 215.277C47.2713 215.55 47.0724 215.77 46.8082 215.938C46.5469 216.102 46.2259 216.185 45.8452 216.185C45.4588 216.185 45.1335 216.102 44.8693 215.938C44.608 215.77 44.4091 215.55 44.2727 215.277C44.1364 215.001 44.0682 214.699 44.0682 214.369ZM45.0653 213.909V214.369C45.0653 214.614 45.1222 214.835 45.2358 215.034C45.3523 215.233 45.5554 215.332 45.8452 215.332C46.1293 215.332 46.3281 215.233 46.4418 215.034C46.5582 214.835 46.6165 214.614 46.6165 214.369V213.909C46.6165 213.665 46.5611 213.443 46.4503 213.244C46.3395 213.045 46.1378 212.946 45.8452 212.946C45.5611 212.946 45.3594 213.045 45.2401 213.244C45.1236 213.443 45.0653 213.665 45.0653 213.909ZM44.473 221L50.473 212.273H51.4915L45.4915 221H44.473Z" fill="white"/>
<defs>
<radialGradient id="paint0_radial_4042_636" cx="0" cy="0" r="1" gradientUnits="userSpaceOnUse" gradientTransform="translate(359.462 87.739) rotate(90) scale(119.495 267.343)">
<stop stop-opacity="0.08"/>
<stop offset="1" stop-opacity="0"/>
</radialGradient>
<linearGradient id="paint1_linear_4042_636" x1="97.5686" y1="277.635" x2="639.904" y2="277.635" gradientUnits="userSpaceOnUse">
<stop stop-opacity="0.4"/>
<stop offset="1"/>
</linearGradient>
<linearGradient id="paint2_linear_4042_636" x1="491.997" y1="-205.79" x2="547.924" y2="288.338" gradientUnits="userSpaceOnUse">
<stop offset="0.303689" stop-color="#329EB7" stop-opacity="0"/>
<stop offset="0.422945" stop-color="#329EB7"/>
<stop offset="0.499089" stop-color="#329EB7"/>
<stop offset="0.649516" stop-color="#44B9BE"/>
<stop offset="0.953267" stop-color="#44B9BE"/>
</linearGradient>
</defs>
</svg>
